<?xml version="1.0" encoding="utf-8"?>
<!-- Generator: Adobe Illustrator 25.4.1, SVG Export Plug-In . SVG Version: 6.00 Build 0)  -->
<svg version="1.1" id="Layer_1" xmlns="http://www.w3.org/2000/svg" xmlns:xlink="http://www.w3.org/1999/xlink" x="0px" y="0px"
	 viewBox="0 0 512 256" style="enable-background:new 0 0 512 256;" xml:space="preserve">
<style type="text/css">
	.st0{fill:#9FBEC9;stroke:#231F20;stroke-width:3;stroke-miterlimit:10;}
	.st1{fill:#9FBEC9;stroke:#231F20;stroke-width:2;stroke-miterlimit:10;}
	.st2{fill:none;stroke:#231F20;stroke-width:4;stroke-miterlimit:10;}
	.st3{clip-path:url(#SVGID_00000131334451113109211130000000350363929238041486_);}
	.st4{fill:#91BECA;}
	.st5{fill:#1F191A;}
	.st6{clip-path:url(#SVGID_00000131334451113109211130000000350363929238041486_);fill:none;}
</style>
<path class="st0" d="M369,76.18"/>
<path class="st1" d="M88.84,198.22"/>
<rect x="19.36" y="88.82" class="st2" width="349.64" height="92.48"/>
<path class="st2" d="M481.57,195.17h-45.22c-6.11,0-11.07-4.96-11.07-11.07V84.2c0-6.11,4.96-11.07,11.07-11.07h45.22
	c6.11,0,11.07,4.96,11.07,11.07v99.9C492.64,190.22,487.68,195.17,481.57,195.17z"/>
<path class="st2" d="M417.73,185.13h-41.17c-4.17,0-7.56-3.38-7.56-7.56V90.72c0-4.17,3.38-7.56,7.56-7.56h41.17
	c4.17,0,7.56,3.38,7.56,7.56v86.86C425.28,181.75,421.9,185.13,417.73,185.13z"/>
<g>
	<defs>
		<rect id="SVGID_1_" x="19.36" y="88.82" width="349.64" height="92.48"/>
	</defs>
	<clipPath id="SVGID_00000075853488523657626790000007502066734985432254_">
		<use xlink:href="#SVGID_1_"  style="overflow:visible;"/>
	</clipPath>
	<g style="clip-path:url(#SVGID_00000075853488523657626790000007502066734985432254_);">
		<g>
			<line class="st4" x1="107.34" y1="79.06" x2="138.68" y2="183.82"/>
			
				<rect x="121.01" y="76.76" transform="matrix(0.9581 -0.2865 0.2865 0.9581 -32.5043 40.7581)" class="st5" width="4" height="109.35"/>
		</g>
		<g>
			<line class="st4" x1="138.68" y1="86.3" x2="170.85" y2="183.82"/>
			
				<rect x="152.76" y="83.72" transform="matrix(0.9497 -0.3133 0.3133 0.9497 -34.5229 55.2841)" class="st5" width="4" height="102.69"/>
		</g>
		<g>
			<line class="st4" x1="170.85" y1="86.3" x2="202.3" y2="183.82"/>
			
				<rect x="184.58" y="83.83" transform="matrix(0.9517 -0.307 0.307 0.9517 -32.4541 63.7981)" class="st5" width="4" height="102.47"/>
		</g>
		<g>
			<line class="st4" x1="202.3" y1="86.3" x2="235.19" y2="183.82"/>
			
				<rect x="216.75" y="83.61" transform="matrix(0.9476 -0.3195 0.3195 0.9476 -31.6905 76.9801)" class="st5" width="4" height="102.92"/>
		</g>
		<g>
			<line class="st4" x1="233.15" y1="84.13" x2="266.04" y2="181.65"/>
			
				<rect x="247.6" y="81.43" transform="matrix(0.9476 -0.3195 0.3195 0.9476 -29.377 86.7235)" class="st5" width="4" height="102.92"/>
		</g>
		<g>
			<line class="st4" x1="265.12" y1="84.13" x2="298.01" y2="181.65"/>
			
				<rect x="279.56" y="81.43" transform="matrix(0.9476 -0.3195 0.3195 0.9476 -27.701 96.9382)" class="st5" width="4" height="102.92"/>
		</g>
		<g>
			<line class="st4" x1="298.01" y1="84.13" x2="330.89" y2="181.65"/>
			
				<rect x="312.45" y="81.43" transform="matrix(0.9476 -0.3195 0.3195 0.9476 -25.9769 107.4466)" class="st5" width="4" height="102.92"/>
		</g>
		<g>
			<line class="st4" x1="330.89" y1="86.3" x2="363.78" y2="183.82"/>
			
				<rect x="345.33" y="83.61" transform="matrix(0.9476 -0.3195 0.3195 0.9476 -24.9489 118.0692)" class="st5" width="4" height="102.92"/>
		</g>
		<g>
			<line class="st4" x1="356.74" y1="87.27" x2="372.12" y2="132.89"/>
			
				<rect x="362.43" y="86.01" transform="matrix(0.9476 -0.3195 0.3195 0.9476 -16.0678 122.2223)" class="st5" width="4" height="48.14"/>
		</g>
		<g>
			<line class="st4" x1="75.94" y1="82.68" x2="107.28" y2="187.45"/>
			
				<rect x="89.61" y="80.39" transform="matrix(0.9581 -0.2865 0.2865 0.9581 -34.8596 31.9129)" class="st5" width="4" height="109.35"/>
		</g>
		<g>
			<line class="st4" x1="44.21" y1="84.13" x2="75.55" y2="188.9"/>
			
				<rect x="57.88" y="81.83" transform="matrix(0.9581 -0.2865 0.2865 0.9581 -36.6045 22.8814)" class="st5" width="4" height="109.35"/>
		</g>
		<g>
			<line class="st4" x1="13.55" y1="90.23" x2="44.88" y2="195"/>
			
				<rect x="27.22" y="87.94" transform="matrix(0.9581 -0.2865 0.2865 0.9581 -39.6394 14.3517)" class="st5" width="4" height="109.35"/>
		</g>
	</g>
	
		<rect x="23.04" y="87.74" style="clip-path:url(#SVGID_00000075853488523657626790000007502066734985432254_);fill:none;" width="349.64" height="92.48"/>
	
		<rect x="23.04" y="87.65" style="clip-path:url(#SVGID_00000075853488523657626790000007502066734985432254_);fill:none;" width="349.64" height="92.48"/>
</g>
</svg>